<?xml version="1.0" encoding="UTF-8" standalone="no"?>
<!-- Creator: CorelDRAW X7 -->

<svg
   xmlns:dc="http://purl.org/dc/elements/1.1/"
   xmlns:cc="http://creativecommons.org/ns#"
   xmlns:rdf="http://www.w3.org/1999/02/22-rdf-syntax-ns#"
   xmlns:svg="http://www.w3.org/2000/svg"
   xmlns="http://www.w3.org/2000/svg"
   xmlns:sodipodi="http://sodipodi.sourceforge.net/DTD/sodipodi-0.dtd"
   xmlns:inkscape="http://www.inkscape.org/namespaces/inkscape"
   xml:space="preserve"
   width="10.8372mm"
   height="7.1966mm"
   version="1.1"
   style="shape-rendering:geometricPrecision; text-rendering:geometricPrecision; image-rendering:optimizeQuality; fill-rule:evenodd; clip-rule:evenodd"
   viewBox="0 0 1084 720"
   id="svg10"
   sodipodi:docname="logowhite.svg"
   inkscape:version="0.92.3 (2405546, 2018-03-11)"><metadata
   id="metadata14"><rdf:RDF><cc:Work
       rdf:about=""><dc:format>image/svg+xml</dc:format><dc:type
         rdf:resource="http://purl.org/dc/dcmitype/StillImage" /><dc:title></dc:title></cc:Work></rdf:RDF></metadata><sodipodi:namedview
   pagecolor="#ffffff"
   bordercolor="#666666"
   borderopacity="1"
   objecttolerance="10"
   gridtolerance="10"
   guidetolerance="10"
   inkscape:pageopacity="0"
   inkscape:pageshadow="2"
   inkscape:window-width="1366"
   inkscape:window-height="714"
   id="namedview12"
   showgrid="false"
   showguides="false"
   inkscape:zoom="12.270496"
   inkscape:cx="23.303389"
   inkscape:cy="16.261225"
   inkscape:window-x="0"
   inkscape:window-y="0"
   inkscape:window-maximized="1"
   inkscape:current-layer="Layer_x0020_1" />
 <defs
   id="defs4">
  <style
   type="text/css"
   id="style2">
   <![CDATA[
    .fil0 {fill:#0670FA;fill-rule:nonzero}
   ]]>
  </style>
 </defs>
 <g
   id="Layer_x0020_1">
  <metadata
   id="CorelCorpID_0Corel-Layer" />
  <path
   style="fill:#ffffff;fill-rule:nonzero;stroke-width:0.98425514"
   d="M 686.78664,6.3393431 668.08682,17.164476 V 96.88778 h -7.87468 V 28.976453 l -19.68661,10.825134 c -2.95808,50.422793 -4.68296,99.203023 -0.98178,140.746873 v 48.65771 226.93512 3.93734 c 0,4.92128 -0.003,9.8412 0.98178,14.76247 0.98424,12.79532 3.93518,25.59108 8.85646,38.38643 19.68511,45.27573 62.00785,67.9164 125.98446,67.9164 7.87404,0 13.78125,-0.003 21.65528,-0.98684 v -75.78603 c -3.937,0 -31.49481,0.98395 -47.24289,-3.93732 -12.79531,-3.93705 -18.69976,-16.73271 -18.69976,-36.41776 V 452.20399 168.01144 l 8.60972,-21.03096 c 5.26745,-12.86753 12.72326,-31.07705 16.56497,-40.46589 l 6.98349,-17.07347 -7.7236,-4.99466 c -4.24737,-2.74673 -8.10351,-4.87002 -8.57455,-4.7228 -0.47097,0.14726 -4.54998,8.89332 -9.06288,19.43491 l -5.62402,13.13111 1.77732,-70.519424 -15.74932,-8.856502 -0.98178,63.974026 h -7.87468 V 24.05227 L 693.67443,16.177593 692.6926,96.88778 h -5.90596 z M 8.634694,164.8042 V 579.17525 H 113.95068 v -171.2637 h 111.22197 v 171.2637 H 332.45228 V 391.18042 164.8042 H 225.17265 V 333.10733 H 113.95068 V 164.8042 Z M 485.01112,279.95843 c -21.6536,0 -42.32027,1.97173 -62.00533,8.86152 -44.2915,16.73232 -64.96088,52.16606 -64.96088,103.34731 v 70.86186 c 0,18.70084 2.95351,36.41917 9.8433,54.13576 18.70088,44.29144 61.02359,65.94771 125.98443,65.94771 24.60638,0 47.24443,-0.98457 66.92954,-3.93734 30.51191,-3.93703 46.26111,-6.89039 46.26111,-7.87463 v -74.80423 h -0.98689 c -35.43313,0 -67.91379,10.82514 -99.40997,10.82514 h -6.88779 c -14.76382,0 -24.60638,-0.98458 -32.48046,-3.93735 -12.79531,-3.93699 -18.69977,-16.73265 -18.69977,-36.41776 v -8.85646 h 165.35267 v -1.96867 -50.19841 c 0,-28.54341 -2.9511,-50.1972 -10.82513,-66.92954 -17.71659,-39.37022 -58.07527,-59.05491 -118.11483,-59.05491 z m 487.25193,1.16306 c -32.17091,0.21974 -60.51434,11.84943 -81.73732,22.46093 0,-3.93704 -0.98439,-7.87252 -1.96867,-12.79384 -0.98424,-1.96847 -1.96863,-3.94006 -1.96863,-6.89281 h -74.80422 v 6.89281 62.99225 359.25352 l 90.5535,-16.73616 v -116.1411 -9.84336 c 5.90556,1.96853 11.81001,3.93749 18.69981,5.90601 10.8268,1.96852 27.5602,4.92419 46.26107,4.92419 53.14991,0 84.64611,-13.78281 97.44141,-41.34194 5.9055,-12.79532 10.825,-40.35363 10.825,-85.62936 v -28.54312 c 0,-47.24423 -3.9353,-69.88401 -10.825,-88.58483 -5.9055,-13.77956 -20.6686,-40.35084 -53.149,-50.1934 -13.5642,-4.15232 -26.73932,-5.81571 -39.32795,-5.72979 z m -487.25193,67.7352 c 9.84255,0 17.72108,2.95577 24.61083,6.89281 8.85831,3.93704 12.7938,15.74842 12.7938,36.41776 v 4.91916 h -73.81734 v -13.78065 c 0,-22.63787 10.82207,-34.44913 36.41271,-34.44908 z m 464.57956,12.8844 c 16.9938,0.55914 27.49007,8.9565 31.48855,22.55154 1.96856,3.93699 2.9505,10.82313 2.9505,17.71291 v 68.89818 c 0,17.71664 -7.87105,31.49879 -25.58761,33.46734 h -7.87467 -5.90597 c -12.79528,0 -27.55994,-3.94054 -42.32377,-12.79884 V 371.49376 c 9.84256,-3.93699 18.70027,-5.90351 24.60582,-6.8878 3.937,-0.98427 6.89047,-0.98443 9.8433,-1.96867 4.61366,-0.73818 8.88222,-1.02523 12.80385,-0.8962 z"
   id="path7"
   inkscape:connector-curvature="0" />
 </g>
</svg>