<?xml version="1.0" encoding="UTF-8"?>
<!DOCTYPE svg PUBLIC "-//W3C//DTD SVG 1.1//EN" "http://www.w3.org/Graphics/SVG/1.1/DTD/svg11.dtd">
<!-- Creator: CorelDRAW X7 -->
<svg xmlns="http://www.w3.org/2000/svg" xml:space="preserve" width="10.8372mm" height="7.1966mm" version="1.1" style="shape-rendering:geometricPrecision; text-rendering:geometricPrecision; image-rendering:optimizeQuality; fill-rule:evenodd; clip-rule:evenodd"
viewBox="0 0 1084 720"
 xmlns:xlink="http://www.w3.org/1999/xlink"
 xmlns:sodipodi="http://sodipodi.sourceforge.net/DTD/sodipodi-0.dtd"
 xmlns:inkscape="http://www.inkscape.org/namespaces/inkscape"
 sodipodi:docname="logoblue.svg"
 inkscape:version="0.92.3 (2405546, 2018-03-11)"
 xmlns:dc="http://purl.org/dc/elements/1.1/"
 xmlns:cc="http://creativecommons.org/ns#"
 xmlns:rdf="http://www.w3.org/1999/02/22-rdf-syntax-ns#"
 xmlns:svg="http://www.w3.org/2000/svg">
 <defs>
  <style type="text/css">
   <![CDATA[
    .fil0 {fill:#0670FA}
   ]]>
  </style>
 </defs>
 <g id="Layer_x0020_1">
  <metadata id="CorelCorpID_0Corel-Layer"/>
  <sodipodi:namedview pagecolor="#ffffff" bordercolor="#666666" borderopacity="1" objecttolerance="10" gridtolerance="10" guidetolerance="10" inkscape:pageopacity="0" inkscape:pageshadow="2" inkscape:window-width="1366" inkscape:window-height="714" id="namedview12" showgrid="false" showguides="false" inkscape:zoom="12.270496" inkscape:cx="23.303389" inkscape:cy="16.261225" inkscape:window-x="0" inkscape:window-y="0" inkscape:window-maximized="1" inkscape:current-layer="Layer_x0020_1"/>
  <path class="fil0" d="M329 391l0 -230 -109 0 0 171 -113 0 0 -171 -107 0 0 421 107 0 0 -174 113 0 0 174 109 0 0 -191zm487 -102l0 64 0 364 92 -16 0 -118 0 -10c6,2 12,4 19,5 11,3 28,6 47,6 54,0 86,-15 98,-42 7,-13 12,-42 12,-87l0 -29c0,-48 -4,-71 -12,-90 -5,-14 -20,-41 -53,-51 -49,-15 -93,2 -123,17 0,-4 -1,-9 -2,-14l-2 -6 -76 0 0 7zm92 204l0 -122c10,-4 19,-6 25,-7 4,-1 7,-2 10,-2 25,-4 40,4 45,22 2,4 3,10 3,18l0 70c0,18 -8,32 -26,33l-8 1 -6 0c-13,0 -28,-4 -43,-13zm-267 -153l0 117 0 4c0,5 0,10 1,15 1,13 4,26 9,38 20,46 63,69 128,69 8,0 14,0 22,0l0 -78c-4,0 -32,1 -48,-3 -13,-4 -20,-17 -20,-37l0 -12 0 -113 -92 0zm-220 -53c-45,17 -66,52 -66,105l0 72c0,18 3,37 10,55 19,44 62,67 128,67 25,0 48,-1 68,-4 31,-4 47,-8 47,-9l0 -75 -1 0c-36,0 -69,11 -101,11l-7 0c-15,0 -25,-1 -33,-4 -13,-4 -19,-17 -19,-37l0 -9 168 0 0 -2 0 -51c0,-29 -3,-51 -11,-68 -18,-40 -59,-60 -120,-60 -22,0 -43,2 -63,9zm88 68c9,4 13,16 13,37l0 5 -75 0 0 -14c0,-23 11,-35 37,-35 10,0 18,3 25,7z"/>
 </g>
</svg>
