<?xml version="1.0" encoding="utf-8"?>
<!-- Generator: Adobe Illustrator 16.0.0, SVG Export Plug-In . SVG Version: 6.00 Build 0)  -->
<!DOCTYPE svg PUBLIC "-//W3C//DTD SVG 1.1//EN" "http://www.w3.org/Graphics/SVG/1.1/DTD/svg11.dtd">
<svg version="1.1" id="Capa_1" xmlns="http://www.w3.org/2000/svg" xmlns:xlink="http://www.w3.org/1999/xlink" x="0px" y="0px"
	 width="512px" height="406.069px" viewBox="0 52.965 512 406.069" enable-background="new 0 52.965 512 406.069"
	 xml:space="preserve">
<g opacity="0.3">
	<path fill="#00A2FF" d="M303.793,216.741h-95.586c-0.942,0-1.707,0.763-1.707,1.707v75.104c0,0.943,0.765,1.707,1.707,1.707h95.586
		c0.942,0,1.707-0.764,1.707-1.707v-75.104C305.5,217.504,304.735,216.741,303.793,216.741z M302.086,291.845h-92.172v-71.69h92.172
		V291.845z"/>
	<path fill="#00A2FF" d="M233.811,254.528c5.242,0,9.505-4.264,9.505-9.504c0-5.244-4.264-9.507-9.505-9.507
		c-5.242,0-9.506,4.264-9.506,9.506C224.305,250.265,228.568,254.528,233.811,254.528z M233.811,238.931
		c3.359,0,6.092,2.734,6.092,6.092c0,3.357-2.733,6.092-6.092,6.092c-3.359,0-6.092-2.733-6.092-6.09
		S230.451,238.931,233.811,238.931z"/>
	<path fill="#00A2FF" d="M218.448,285.018c0.399,0,0.802-0.141,1.126-0.426l27.845-24.515l17.584,17.583
		c0.668,0.668,1.746,0.668,2.414,0c0.667-0.667,0.667-1.746,0-2.413l-8.205-8.205l15.671-17.162l19.221,17.621
		c0.695,0.637,1.775,0.589,2.412-0.106c0.637-0.694,0.591-1.774-0.105-2.411l-20.483-18.776c-0.334-0.306-0.78-0.458-1.229-0.447
		c-0.452,0.021-0.879,0.22-1.185,0.555l-16.718,18.31l-8.096-8.096c-0.638-0.637-1.659-0.669-2.335-0.076l-29.046,25.575
		c-0.708,0.623-0.777,1.702-0.154,2.41C217.504,284.822,217.976,285.018,218.448,285.018z"/>
</g>
</svg>
